<svg width="348" height="250" viewBox="0 0 348 250" fill="none" xmlns="http://www.w3.org/2000/svg">
<g clip-path="url(#clip0_257_5467)">
<circle cx="3" cy="5" r="5" fill="#D2D6DB"/>
<circle cx="33" cy="5" r="5" fill="#D2D6DB"/>
<circle cx="63" cy="5" r="5" fill="#D2D6DB"/>
<circle cx="93" cy="5" r="5" fill="#D2D6DB"/>
<circle cx="123" cy="5" r="5" fill="#D2D6DB"/>
<circle cx="153" cy="5" r="5" fill="#D2D6DB"/>
<circle cx="183" cy="5" r="5" fill="#D2D6DB"/>
<circle cx="213" cy="5" r="5" fill="#D2D6DB"/>
<circle cx="243" cy="5" r="5" fill="#D2D6DB"/>
<circle cx="273" cy="5" r="5" fill="#D2D6DB"/>
<circle cx="303" cy="5" r="5" fill="#D2D6DB"/>
<circle cx="333" cy="5" r="5" fill="#D2D6DB"/>
<circle cx="3" cy="35" r="5" fill="#D2D6DB"/>
<circle cx="33" cy="35" r="5" fill="#D2D6DB"/>
<circle cx="63" cy="35" r="5" fill="#D2D6DB"/>
<circle cx="93" cy="35" r="5" fill="#D2D6DB"/>
<circle cx="123" cy="35" r="5" fill="#D2D6DB"/>
<circle cx="153" cy="35" r="5" fill="#D2D6DB"/>
<circle cx="183" cy="35" r="5" fill="#D2D6DB"/>
<circle cx="213" cy="35" r="5" fill="#D2D6DB"/>
<circle cx="243" cy="35" r="5" fill="#D2D6DB"/>
<circle cx="273" cy="35" r="5" fill="#D2D6DB"/>
<circle cx="303" cy="35" r="5" fill="#D2D6DB"/>
<circle cx="333" cy="35" r="5" fill="#D2D6DB"/>
<circle cx="3" cy="65" r="5" fill="#D2D6DB"/>
<circle cx="33" cy="65" r="5" fill="#D2D6DB"/>
<circle cx="63" cy="65" r="5" fill="#D2D6DB"/>
<circle cx="93" cy="65" r="5" fill="#D2D6DB"/>
<circle cx="123" cy="65" r="5" fill="#D2D6DB"/>
<circle cx="153" cy="65" r="5" fill="#D2D6DB"/>
<circle cx="183" cy="65" r="5" fill="#D2D6DB"/>
<circle cx="213" cy="65" r="5" fill="#D2D6DB"/>
<circle cx="243" cy="65" r="5" fill="#D2D6DB"/>
<circle cx="273" cy="65" r="5" fill="#D2D6DB"/>
<circle cx="303" cy="65" r="5" fill="#D2D6DB"/>
<circle cx="333" cy="65" r="5" fill="#D2D6DB"/>
<circle cx="3" cy="95" r="5" fill="#D2D6DB"/>
<circle cx="33" cy="95" r="5" fill="#D2D6DB"/>
<circle cx="63" cy="95" r="5" fill="#D2D6DB"/>
<circle cx="93" cy="95" r="5" fill="#D2D6DB"/>
<circle cx="123" cy="95" r="5" fill="#D2D6DB"/>
<circle cx="153" cy="95" r="5" fill="#D2D6DB"/>
<circle cx="183" cy="95" r="5" fill="#D2D6DB"/>
<circle cx="213" cy="95" r="5" fill="#D2D6DB"/>
<circle cx="243" cy="95" r="5" fill="#D2D6DB"/>
<circle cx="273" cy="95" r="5" fill="#D2D6DB"/>
<circle cx="303" cy="95" r="5" fill="#D2D6DB"/>
<circle cx="333" cy="95" r="5" fill="#D2D6DB"/>
<circle cx="3" cy="125" r="5" fill="#D2D6DB"/>
<circle cx="33" cy="125" r="5" fill="#D2D6DB"/>
<circle cx="63" cy="125" r="5" fill="#D2D6DB"/>
<circle cx="93" cy="125" r="5" fill="#D2D6DB"/>
<circle cx="123" cy="125" r="5" fill="#D2D6DB"/>
<circle cx="153" cy="125" r="5" fill="#D2D6DB"/>
<circle cx="183" cy="125" r="5" fill="#D2D6DB"/>
<circle cx="213" cy="125" r="5" fill="#D2D6DB"/>
<circle cx="243" cy="125" r="5" fill="#D2D6DB"/>
<circle cx="273" cy="125" r="5" fill="#D2D6DB"/>
<circle cx="303" cy="125" r="5" fill="#D2D6DB"/>
<circle cx="333" cy="125" r="5" fill="#D2D6DB"/>
<circle cx="3" cy="155" r="5" fill="#D2D6DB"/>
<circle cx="33" cy="155" r="5" fill="#D2D6DB"/>
<circle cx="63" cy="155" r="5" fill="#D2D6DB"/>
<circle cx="93" cy="155" r="5" fill="#D2D6DB"/>
<circle cx="123" cy="155" r="5" fill="#D2D6DB"/>
<circle cx="153" cy="155" r="5" fill="#D2D6DB"/>
<circle cx="183" cy="155" r="5" fill="#D2D6DB"/>
<circle cx="213" cy="155" r="5" fill="#D2D6DB"/>
<circle cx="243" cy="155" r="5" fill="#D2D6DB"/>
<circle cx="273" cy="155" r="5" fill="#D2D6DB"/>
<circle cx="303" cy="155" r="5" fill="#D2D6DB"/>
<circle cx="333" cy="155" r="5" fill="#D2D6DB"/>
<circle cx="3" cy="185" r="5" fill="#D2D6DB"/>
<circle cx="33" cy="185" r="5" fill="#D2D6DB"/>
<circle cx="63" cy="185" r="5" fill="#D2D6DB"/>
<circle cx="93" cy="185" r="5" fill="#D2D6DB"/>
<circle cx="123" cy="185" r="5" fill="#D2D6DB"/>
<circle cx="153" cy="185" r="5" fill="#D2D6DB"/>
<circle cx="183" cy="185" r="5" fill="#D2D6DB"/>
<circle cx="213" cy="185" r="5" fill="#D2D6DB"/>
<circle cx="243" cy="185" r="5" fill="#D2D6DB"/>
<circle cx="273" cy="185" r="5" fill="#D2D6DB"/>
<circle cx="303" cy="185" r="5" fill="#D2D6DB"/>
<circle cx="333" cy="185" r="5" fill="#D2D6DB"/>
<circle cx="3" cy="215" r="5" fill="#D2D6DB"/>
<circle cx="33" cy="215" r="5" fill="#D2D6DB"/>
<circle cx="63" cy="215" r="5" fill="#D2D6DB"/>
<circle cx="93" cy="215" r="5" fill="#D2D6DB"/>
<circle cx="123" cy="215" r="5" fill="#D2D6DB"/>
<circle cx="153" cy="215" r="5" fill="#D2D6DB"/>
<circle cx="183" cy="215" r="5" fill="#D2D6DB"/>
<circle cx="213" cy="215" r="5" fill="#D2D6DB"/>
<circle cx="243" cy="215" r="5" fill="#D2D6DB"/>
<circle cx="273" cy="215" r="5" fill="#D2D6DB"/>
<circle cx="303" cy="215" r="5" fill="#D2D6DB"/>
<circle cx="333" cy="215" r="5" fill="#D2D6DB"/>
<circle cx="3" cy="245" r="5" fill="#D2D6DB"/>
<circle cx="33" cy="245" r="5" fill="#D2D6DB"/>
<circle cx="63" cy="245" r="5" fill="#D2D6DB"/>
<circle cx="93" cy="245" r="5" fill="#D2D6DB"/>
<circle cx="123" cy="245" r="5" fill="#D2D6DB"/>
<circle cx="153" cy="245" r="5" fill="#D2D6DB"/>
<circle cx="183" cy="245" r="5" fill="#D2D6DB"/>
<circle cx="213" cy="245" r="5" fill="#D2D6DB"/>
<circle cx="243" cy="245" r="5" fill="#D2D6DB"/>
<circle cx="273" cy="245" r="5" fill="#D2D6DB"/>
<circle cx="303" cy="245" r="5" fill="#D2D6DB"/>
<circle cx="333" cy="245" r="5" fill="#D2D6DB"/>
</g>
<defs>
<clipPath id="clip0_257_5467">
<rect width="500" height="250" fill="white" transform="translate(-152)"/>
</clipPath>
</defs>
</svg>
