<svg xmlns="http://www.w3.org/2000/svg" width="375" viewBox="0 0 375 375" height="375" version="1.0">
  <path fill="#23408E"
    d="M 187.5 41.660156 L 333.339844 187.5 L 187.5 333.339844 L 41.660156 187.5 L 187.5 41.660156" />
  <g fill="#6AABD7">
    <g>
      <g>
        <path
          d="M 41.3125 -47.125 C 41.3125 -49.84375 40.257812 -52.203125 38.15625 -54.203125 C 36.050781 -56.210938 33.09375 -57.21875 29.28125 -57.21875 C 26.050781 -57.21875 23.5 -56.550781 21.625 -55.21875 C 19.75 -53.894531 18.8125 -52.101562 18.8125 -49.84375 C 18.8125 -48.675781 19.035156 -47.625 19.484375 -46.6875 C 19.941406 -45.75 20.734375 -44.90625 21.859375 -44.15625 C 22.992188 -43.414062 24.484375 -42.753906 26.328125 -42.171875 C 28.171875 -41.597656 30.515625 -41.050781 33.359375 -40.53125 C 40.472656 -39.238281 45.898438 -37.070312 49.640625 -34.03125 C 53.390625 -31 55.265625 -26.507812 55.265625 -20.5625 L 55.265625 -19.390625 C 55.265625 -16.222656 54.695312 -13.363281 53.5625 -10.8125 C 52.4375 -8.257812 50.804688 -6.078125 48.671875 -4.265625 C 46.546875 -2.453125 43.960938 -1.0625 40.921875 -0.09375 C 37.878906 0.875 34.453125 1.359375 30.640625 1.359375 C 26.179688 1.359375 22.253906 0.726562 18.859375 -0.53125 C 15.460938 -1.789062 12.632812 -3.535156 10.375 -5.765625 C 8.113281 -7.992188 6.398438 -10.613281 5.234375 -13.625 C 4.066406 -16.632812 3.484375 -19.914062 3.484375 -23.46875 L 3.484375 -26.375 L 16.296875 -26.375 L 16.296875 -24.046875 C 16.296875 -19.972656 17.472656 -16.722656 19.828125 -14.296875 C 22.191406 -11.878906 25.863281 -10.671875 30.84375 -10.671875 C 34.71875 -10.671875 37.59375 -11.507812 39.46875 -13.1875 C 41.34375 -14.863281 42.28125 -16.867188 42.28125 -19.203125 C 42.28125 -20.296875 42.082031 -21.34375 41.6875 -22.34375 C 41.300781 -23.351562 40.625 -24.257812 39.65625 -25.0625 C 38.6875 -25.875 37.359375 -26.601562 35.671875 -27.25 C 33.992188 -27.894531 31.863281 -28.441406 29.28125 -28.890625 C 25.851562 -29.472656 22.71875 -30.234375 19.875 -31.171875 C 17.03125 -32.109375 14.554688 -33.351562 12.453125 -34.90625 C 10.359375 -36.457031 8.726562 -38.394531 7.5625 -40.71875 C 6.394531 -43.050781 5.8125 -45.898438 5.8125 -49.265625 L 5.8125 -49.84375 C 5.8125 -52.625 6.378906 -55.191406 7.515625 -57.546875 C 8.648438 -59.910156 10.234375 -61.960938 12.265625 -63.703125 C 14.304688 -65.453125 16.765625 -66.8125 19.640625 -67.78125 C 22.515625 -68.75 25.726562 -69.234375 29.28125 -69.234375 C 33.289062 -69.234375 36.847656 -68.664062 39.953125 -67.53125 C 43.054688 -66.40625 45.65625 -64.875 47.75 -62.9375 C 49.851562 -61 51.4375 -58.765625 52.5 -56.234375 C 53.570312 -53.710938 54.109375 -51.066406 54.109375 -48.296875 L 54.109375 -44.796875 L 41.3125 -44.796875 Z M 41.3125 -47.125"
          transform="translate(109.415 223.875)" />
      </g>
    </g>
  </g>
  <g fill="#6AABD7">
    <g>
      <g>
        <path
          d="M 38.890625 -7.859375 C 38.890625 -6.566406 38.644531 -5.351562 38.15625 -4.21875 C 37.675781 -3.082031 37.015625 -2.109375 36.171875 -1.296875 C 35.328125 -0.492188 34.335938 0.144531 33.203125 0.625 C 32.078125 1.113281 30.898438 1.359375 29.671875 1.359375 C 28.378906 1.359375 27.179688 1.113281 26.078125 0.625 C 24.984375 0.144531 24.015625 -0.492188 23.171875 -1.296875 C 22.335938 -2.109375 21.675781 -3.082031 21.1875 -4.21875 C 20.695312 -5.351562 20.453125 -6.566406 20.453125 -7.859375 C 20.453125 -9.148438 20.695312 -10.359375 21.1875 -11.484375 C 21.675781 -12.617188 22.335938 -13.585938 23.171875 -14.390625 C 24.015625 -15.203125 24.984375 -15.847656 26.078125 -16.328125 C 27.179688 -16.816406 28.378906 -17.0625 29.671875 -17.0625 C 30.898438 -17.0625 32.078125 -16.816406 33.203125 -16.328125 C 34.335938 -15.847656 35.328125 -15.203125 36.171875 -14.390625 C 37.015625 -13.585938 37.675781 -12.617188 38.15625 -11.484375 C 38.644531 -10.359375 38.890625 -9.148438 38.890625 -7.859375 Z M 38.890625 -7.859375"
          transform="translate(149.366 223.875)" />
      </g>
    </g>
  </g>
  <g fill="#6AABD7">
    <g>
      <g>
        <path
          d="M 23.265625 -23.859375 L 20.359375 -23.859375 L 0.875 -67.875 L 14.84375 -67.875 L 28.796875 -35.484375 L 30.546875 -35.484375 L 44.515625 -67.875 L 58.46875 -67.875 L 38.984375 -23.859375 L 36.078125 -23.859375 L 36.078125 0 L 23.265625 0 Z M 23.265625 -23.859375"
          transform="translate(189.317 223.875)" />
      </g>
    </g>
  </g>
</svg>